<mxfile host="app.diagrams.net" modified="2022-12-29T14:24:37.407Z" agent="5.0 (X11; Ubuntu)" etag="RknU2VOsh7HyHxaYjo1r" version="20.7.4" type="github">
  <diagram id="4P2TpbgXzhP-4KFeG8Nv" name="Page-1">
    <mxGraphModel dx="1231" dy="568" grid="1" gridSize="10" guides="1" tooltips="1" connect="1" arrows="1" fold="1" page="1" pageScale="1" pageWidth="827" pageHeight="1169" math="0" shadow="0">
      <root>
        <mxCell id="0" />
        <mxCell id="1" parent="0" />
        <mxCell id="2" value="&lt;div&gt;Diagramme de cas d&#39;utilisation&lt;/div&gt;&lt;div&gt;&lt;br&gt;&lt;/div&gt;" style="text;html=1;resizable=0;autosize=1;align=center;verticalAlign=middle;points=[];fillColor=none;strokeColor=none;rounded=0;" parent="1" vertex="1">
          <mxGeometry x="60" y="80" width="180" height="30" as="geometry" />
        </mxCell>
        <mxCell id="oijMVtfoC-c7ZMny98bf-25" style="edgeStyle=orthogonalEdgeStyle;rounded=0;orthogonalLoop=1;jettySize=auto;html=1;exitX=1;exitY=0.3333333333333333;exitDx=0;exitDy=0;exitPerimeter=0;entryX=0;entryY=0.5;entryDx=0;entryDy=0;" parent="1" source="oijMVtfoC-c7ZMny98bf-12" target="oijMVtfoC-c7ZMny98bf-19" edge="1">
          <mxGeometry relative="1" as="geometry" />
        </mxCell>
        <mxCell id="oijMVtfoC-c7ZMny98bf-12" value="Administrateur" style="shape=umlActor;verticalLabelPosition=bottom;verticalAlign=top;html=1;outlineConnect=0;" parent="1" vertex="1">
          <mxGeometry x="100" y="195" width="30" height="60" as="geometry" />
        </mxCell>
        <mxCell id="oijMVtfoC-c7ZMny98bf-18" value="" style="group" parent="1" vertex="1" connectable="0">
          <mxGeometry x="200" y="175" width="120" height="80" as="geometry" />
        </mxCell>
        <mxCell id="oijMVtfoC-c7ZMny98bf-19" value="" style="ellipse;whiteSpace=wrap;html=1;" parent="oijMVtfoC-c7ZMny98bf-18" vertex="1">
          <mxGeometry width="120" height="80" as="geometry" />
        </mxCell>
        <mxCell id="oijMVtfoC-c7ZMny98bf-20" value="se connecter" style="text;html=1;strokeColor=none;fillColor=none;align=center;verticalAlign=middle;whiteSpace=wrap;rounded=0;" parent="oijMVtfoC-c7ZMny98bf-18" vertex="1">
          <mxGeometry x="30" y="20" width="60" height="30" as="geometry" />
        </mxCell>
        <mxCell id="oijMVtfoC-c7ZMny98bf-26" value="" style="group" parent="1" vertex="1" connectable="0">
          <mxGeometry x="200" y="330" width="120" height="80" as="geometry" />
        </mxCell>
        <mxCell id="oijMVtfoC-c7ZMny98bf-27" value="" style="ellipse;whiteSpace=wrap;html=1;" parent="oijMVtfoC-c7ZMny98bf-26" vertex="1">
          <mxGeometry width="120" height="80" as="geometry" />
        </mxCell>
        <mxCell id="oijMVtfoC-c7ZMny98bf-28" value="Créer des menus avec des formules" style="text;html=1;strokeColor=none;fillColor=none;align=center;verticalAlign=middle;whiteSpace=wrap;rounded=0;" parent="oijMVtfoC-c7ZMny98bf-26" vertex="1">
          <mxGeometry x="30" y="20" width="60" height="30" as="geometry" />
        </mxCell>
        <mxCell id="oijMVtfoC-c7ZMny98bf-29" value="" style="group" parent="1" vertex="1" connectable="0">
          <mxGeometry x="424" y="170" width="250" height="100" as="geometry" />
        </mxCell>
        <mxCell id="oijMVtfoC-c7ZMny98bf-30" value="" style="ellipse;whiteSpace=wrap;html=1;" parent="oijMVtfoC-c7ZMny98bf-29" vertex="1">
          <mxGeometry width="250.00000000000003" height="100" as="geometry" />
        </mxCell>
        <mxCell id="oijMVtfoC-c7ZMny98bf-31" value="Créer une galerie pour les plats avec des catégories" style="text;html=1;strokeColor=none;fillColor=none;align=center;verticalAlign=middle;whiteSpace=wrap;rounded=0;" parent="oijMVtfoC-c7ZMny98bf-29" vertex="1">
          <mxGeometry x="62.50000000000001" y="25" width="125.00000000000001" height="37.5" as="geometry" />
        </mxCell>
        <mxCell id="oijMVtfoC-c7ZMny98bf-34" style="edgeStyle=orthogonalEdgeStyle;rounded=0;orthogonalLoop=1;jettySize=auto;html=1;exitX=1;exitY=0.5;exitDx=0;exitDy=0;" parent="1" source="oijMVtfoC-c7ZMny98bf-19" edge="1">
          <mxGeometry relative="1" as="geometry">
            <mxPoint x="430" y="215.76923076923072" as="targetPoint" />
          </mxGeometry>
        </mxCell>
        <mxCell id="oijMVtfoC-c7ZMny98bf-35" style="edgeStyle=orthogonalEdgeStyle;rounded=0;orthogonalLoop=1;jettySize=auto;html=1;exitX=0.5;exitY=1;exitDx=0;exitDy=0;" parent="1" source="oijMVtfoC-c7ZMny98bf-19" target="oijMVtfoC-c7ZMny98bf-27" edge="1">
          <mxGeometry relative="1" as="geometry" />
        </mxCell>
        <mxCell id="V9nd8Epz2j4CVJ5qrW6O-2" style="edgeStyle=orthogonalEdgeStyle;rounded=0;orthogonalLoop=1;jettySize=auto;html=1;exitX=1;exitY=1;exitDx=0;exitDy=0;" edge="1" parent="1" source="oijMVtfoC-c7ZMny98bf-19">
          <mxGeometry relative="1" as="geometry">
            <mxPoint x="420" y="340" as="targetPoint" />
          </mxGeometry>
        </mxCell>
        <mxCell id="V9nd8Epz2j4CVJ5qrW6O-3" value="" style="group" vertex="1" connectable="0" parent="1">
          <mxGeometry x="370" y="340" width="120" height="70" as="geometry" />
        </mxCell>
        <mxCell id="V9nd8Epz2j4CVJ5qrW6O-4" value="" style="ellipse;whiteSpace=wrap;html=1;" vertex="1" parent="V9nd8Epz2j4CVJ5qrW6O-3">
          <mxGeometry width="120" height="70" as="geometry" />
        </mxCell>
        <mxCell id="V9nd8Epz2j4CVJ5qrW6O-5" value="Créer des horaires" style="text;html=1;strokeColor=none;fillColor=none;align=center;verticalAlign=middle;whiteSpace=wrap;rounded=0;" vertex="1" parent="V9nd8Epz2j4CVJ5qrW6O-3">
          <mxGeometry x="30" y="17.5" width="60" height="26.25" as="geometry" />
        </mxCell>
        <mxCell id="V9nd8Epz2j4CVJ5qrW6O-6" style="edgeStyle=orthogonalEdgeStyle;rounded=0;orthogonalLoop=1;jettySize=auto;html=1;exitX=1;exitY=0.3333333333333333;exitDx=0;exitDy=0;exitPerimeter=0;entryX=0;entryY=0.5;entryDx=0;entryDy=0;" edge="1" source="V9nd8Epz2j4CVJ5qrW6O-7" target="V9nd8Epz2j4CVJ5qrW6O-9" parent="1">
          <mxGeometry relative="1" as="geometry" />
        </mxCell>
        <mxCell id="V9nd8Epz2j4CVJ5qrW6O-7" value="Client" style="shape=umlActor;verticalLabelPosition=bottom;verticalAlign=top;html=1;outlineConnect=0;" vertex="1" parent="1">
          <mxGeometry x="100" y="465" width="30" height="60" as="geometry" />
        </mxCell>
        <mxCell id="V9nd8Epz2j4CVJ5qrW6O-8" value="" style="group" vertex="1" connectable="0" parent="1">
          <mxGeometry x="200" y="445" width="120" height="80" as="geometry" />
        </mxCell>
        <mxCell id="V9nd8Epz2j4CVJ5qrW6O-9" value="" style="ellipse;whiteSpace=wrap;html=1;" vertex="1" parent="V9nd8Epz2j4CVJ5qrW6O-8">
          <mxGeometry width="120" height="80" as="geometry" />
        </mxCell>
        <mxCell id="V9nd8Epz2j4CVJ5qrW6O-10" value="se connecter" style="text;html=1;strokeColor=none;fillColor=none;align=center;verticalAlign=middle;whiteSpace=wrap;rounded=0;" vertex="1" parent="V9nd8Epz2j4CVJ5qrW6O-8">
          <mxGeometry x="30" y="20" width="60" height="30" as="geometry" />
        </mxCell>
        <mxCell id="V9nd8Epz2j4CVJ5qrW6O-11" value="" style="group" vertex="1" connectable="0" parent="1">
          <mxGeometry x="200" y="600" width="120" height="80" as="geometry" />
        </mxCell>
        <mxCell id="V9nd8Epz2j4CVJ5qrW6O-12" value="" style="ellipse;whiteSpace=wrap;html=1;" vertex="1" parent="V9nd8Epz2j4CVJ5qrW6O-11">
          <mxGeometry width="120" height="80" as="geometry" />
        </mxCell>
        <mxCell id="V9nd8Epz2j4CVJ5qrW6O-13" value="Mentionner des allergies" style="text;html=1;strokeColor=none;fillColor=none;align=center;verticalAlign=middle;whiteSpace=wrap;rounded=0;" vertex="1" parent="V9nd8Epz2j4CVJ5qrW6O-11">
          <mxGeometry x="30" y="20" width="60" height="30" as="geometry" />
        </mxCell>
        <mxCell id="V9nd8Epz2j4CVJ5qrW6O-14" value="" style="group" vertex="1" connectable="0" parent="1">
          <mxGeometry x="424" y="440" width="250" height="100" as="geometry" />
        </mxCell>
        <mxCell id="V9nd8Epz2j4CVJ5qrW6O-15" value="" style="ellipse;whiteSpace=wrap;html=1;" vertex="1" parent="V9nd8Epz2j4CVJ5qrW6O-14">
          <mxGeometry width="250.00000000000003" height="100" as="geometry" />
        </mxCell>
        <mxCell id="V9nd8Epz2j4CVJ5qrW6O-16" value="Réserver une table" style="text;html=1;strokeColor=none;fillColor=none;align=center;verticalAlign=middle;whiteSpace=wrap;rounded=0;" vertex="1" parent="V9nd8Epz2j4CVJ5qrW6O-14">
          <mxGeometry x="62.50000000000001" y="25" width="125.00000000000001" height="37.5" as="geometry" />
        </mxCell>
        <mxCell id="V9nd8Epz2j4CVJ5qrW6O-17" style="edgeStyle=orthogonalEdgeStyle;rounded=0;orthogonalLoop=1;jettySize=auto;html=1;exitX=1;exitY=0.5;exitDx=0;exitDy=0;" edge="1" source="V9nd8Epz2j4CVJ5qrW6O-9" parent="1">
          <mxGeometry relative="1" as="geometry">
            <mxPoint x="430" y="485.76923076923083" as="targetPoint" />
          </mxGeometry>
        </mxCell>
        <mxCell id="V9nd8Epz2j4CVJ5qrW6O-18" style="edgeStyle=orthogonalEdgeStyle;rounded=0;orthogonalLoop=1;jettySize=auto;html=1;exitX=0.5;exitY=1;exitDx=0;exitDy=0;" edge="1" source="V9nd8Epz2j4CVJ5qrW6O-9" target="V9nd8Epz2j4CVJ5qrW6O-12" parent="1">
          <mxGeometry relative="1" as="geometry" />
        </mxCell>
        <mxCell id="V9nd8Epz2j4CVJ5qrW6O-19" style="edgeStyle=orthogonalEdgeStyle;rounded=0;orthogonalLoop=1;jettySize=auto;html=1;exitX=1;exitY=1;exitDx=0;exitDy=0;" edge="1" source="V9nd8Epz2j4CVJ5qrW6O-9" parent="1">
          <mxGeometry relative="1" as="geometry">
            <mxPoint x="420" y="610" as="targetPoint" />
          </mxGeometry>
        </mxCell>
        <mxCell id="V9nd8Epz2j4CVJ5qrW6O-20" value="" style="group" vertex="1" connectable="0" parent="1">
          <mxGeometry x="370" y="610" width="120" height="70" as="geometry" />
        </mxCell>
        <mxCell id="V9nd8Epz2j4CVJ5qrW6O-21" value="" style="ellipse;whiteSpace=wrap;html=1;" vertex="1" parent="V9nd8Epz2j4CVJ5qrW6O-20">
          <mxGeometry width="120" height="70" as="geometry" />
        </mxCell>
        <mxCell id="V9nd8Epz2j4CVJ5qrW6O-22" value="Donner un horaire" style="text;html=1;strokeColor=none;fillColor=none;align=center;verticalAlign=middle;whiteSpace=wrap;rounded=0;" vertex="1" parent="V9nd8Epz2j4CVJ5qrW6O-20">
          <mxGeometry x="30" y="17.5" width="60" height="26.25" as="geometry" />
        </mxCell>
        <mxCell id="V9nd8Epz2j4CVJ5qrW6O-23" style="edgeStyle=orthogonalEdgeStyle;rounded=0;orthogonalLoop=1;jettySize=auto;html=1;exitX=1;exitY=0.3333333333333333;exitDx=0;exitDy=0;exitPerimeter=0;entryX=0;entryY=0.5;entryDx=0;entryDy=0;" edge="1" source="V9nd8Epz2j4CVJ5qrW6O-24" target="V9nd8Epz2j4CVJ5qrW6O-26" parent="1">
          <mxGeometry relative="1" as="geometry" />
        </mxCell>
        <mxCell id="V9nd8Epz2j4CVJ5qrW6O-24" value="Visiteur" style="shape=umlActor;verticalLabelPosition=bottom;verticalAlign=top;html=1;outlineConnect=0;" vertex="1" parent="1">
          <mxGeometry x="100" y="735" width="30" height="60" as="geometry" />
        </mxCell>
        <mxCell id="V9nd8Epz2j4CVJ5qrW6O-25" value="" style="group" vertex="1" connectable="0" parent="1">
          <mxGeometry x="200" y="715" width="120" height="80" as="geometry" />
        </mxCell>
        <mxCell id="V9nd8Epz2j4CVJ5qrW6O-26" value="" style="ellipse;whiteSpace=wrap;html=1;" vertex="1" parent="V9nd8Epz2j4CVJ5qrW6O-25">
          <mxGeometry width="120" height="80" as="geometry" />
        </mxCell>
        <mxCell id="V9nd8Epz2j4CVJ5qrW6O-27" value="s&#39;enregistrer" style="text;html=1;strokeColor=none;fillColor=none;align=center;verticalAlign=middle;whiteSpace=wrap;rounded=0;" vertex="1" parent="V9nd8Epz2j4CVJ5qrW6O-25">
          <mxGeometry x="30" y="20" width="60" height="30" as="geometry" />
        </mxCell>
        <mxCell id="V9nd8Epz2j4CVJ5qrW6O-28" value="" style="group" vertex="1" connectable="0" parent="1">
          <mxGeometry x="200" y="870" width="120" height="80" as="geometry" />
        </mxCell>
        <mxCell id="V9nd8Epz2j4CVJ5qrW6O-29" value="" style="ellipse;whiteSpace=wrap;html=1;" vertex="1" parent="V9nd8Epz2j4CVJ5qrW6O-28">
          <mxGeometry width="120" height="80" as="geometry" />
        </mxCell>
        <mxCell id="V9nd8Epz2j4CVJ5qrW6O-30" value="Mentionner des allergies" style="text;html=1;strokeColor=none;fillColor=none;align=center;verticalAlign=middle;whiteSpace=wrap;rounded=0;" vertex="1" parent="V9nd8Epz2j4CVJ5qrW6O-28">
          <mxGeometry x="30" y="20" width="60" height="30" as="geometry" />
        </mxCell>
        <mxCell id="V9nd8Epz2j4CVJ5qrW6O-31" value="" style="group" vertex="1" connectable="0" parent="1">
          <mxGeometry x="80" y="980" width="250" height="100" as="geometry" />
        </mxCell>
        <mxCell id="V9nd8Epz2j4CVJ5qrW6O-32" value="" style="ellipse;whiteSpace=wrap;html=1;" vertex="1" parent="V9nd8Epz2j4CVJ5qrW6O-31">
          <mxGeometry width="250.00000000000003" height="100" as="geometry" />
        </mxCell>
        <mxCell id="V9nd8Epz2j4CVJ5qrW6O-33" value="Réserver une table" style="text;html=1;strokeColor=none;fillColor=none;align=center;verticalAlign=middle;whiteSpace=wrap;rounded=0;" vertex="1" parent="V9nd8Epz2j4CVJ5qrW6O-31">
          <mxGeometry x="62.50000000000001" y="25" width="125.00000000000001" height="37.5" as="geometry" />
        </mxCell>
        <mxCell id="V9nd8Epz2j4CVJ5qrW6O-35" style="edgeStyle=orthogonalEdgeStyle;rounded=0;orthogonalLoop=1;jettySize=auto;html=1;" edge="1" target="V9nd8Epz2j4CVJ5qrW6O-29" parent="1">
          <mxGeometry relative="1" as="geometry">
            <mxPoint x="140" y="790" as="sourcePoint" />
            <Array as="points">
              <mxPoint x="140" y="830" />
              <mxPoint x="260" y="830" />
            </Array>
          </mxGeometry>
        </mxCell>
        <mxCell id="V9nd8Epz2j4CVJ5qrW6O-36" style="edgeStyle=orthogonalEdgeStyle;rounded=0;orthogonalLoop=1;jettySize=auto;html=1;" edge="1" parent="1">
          <mxGeometry relative="1" as="geometry">
            <mxPoint x="420" y="880" as="targetPoint" />
            <mxPoint x="140" y="790" as="sourcePoint" />
            <Array as="points">
              <mxPoint x="140" y="810" />
              <mxPoint x="420" y="810" />
            </Array>
          </mxGeometry>
        </mxCell>
        <mxCell id="V9nd8Epz2j4CVJ5qrW6O-37" value="" style="group" vertex="1" connectable="0" parent="1">
          <mxGeometry x="370" y="880" width="120" height="70" as="geometry" />
        </mxCell>
        <mxCell id="V9nd8Epz2j4CVJ5qrW6O-38" value="" style="ellipse;whiteSpace=wrap;html=1;" vertex="1" parent="V9nd8Epz2j4CVJ5qrW6O-37">
          <mxGeometry width="120" height="70" as="geometry" />
        </mxCell>
        <mxCell id="V9nd8Epz2j4CVJ5qrW6O-39" value="Donner un horaire" style="text;html=1;strokeColor=none;fillColor=none;align=center;verticalAlign=middle;whiteSpace=wrap;rounded=0;" vertex="1" parent="V9nd8Epz2j4CVJ5qrW6O-37">
          <mxGeometry x="30" y="17.5" width="60" height="26.25" as="geometry" />
        </mxCell>
        <mxCell id="V9nd8Epz2j4CVJ5qrW6O-40" style="edgeStyle=orthogonalEdgeStyle;rounded=0;orthogonalLoop=1;jettySize=auto;html=1;exitX=0;exitY=0;exitDx=0;exitDy=0;" edge="1" parent="1" source="V9nd8Epz2j4CVJ5qrW6O-32">
          <mxGeometry relative="1" as="geometry">
            <mxPoint x="110" y="820" as="targetPoint" />
            <Array as="points">
              <mxPoint x="116" y="980" />
              <mxPoint x="110" y="980" />
            </Array>
          </mxGeometry>
        </mxCell>
      </root>
    </mxGraphModel>
  </diagram>
</mxfile>
